<svg width="104" height="104" viewBox="0 0 104 104" fill="none" xmlns="http://www.w3.org/2000/svg">
<path d="M27.7541 15.2131L34.4426 5.18033L43.6393 8.52459L52 1L62.8689 8.52459L72.9016 5.18033L77.082 15.2131H88.7869L90.459 26.082L99.6557 32.7705L95.4754 41.9672L103 51.1639L95.4754 59.5246L101.328 71.2295L90.459 75.4098V87.9508H79.5902L74.5738 98.8197L62.8689 95.4754L53.6721 103L46.1475 95.4754L33.6066 99.6557L25.2459 87.9508H14.377L16.0492 75.4098L4.34426 69.5574L10.1967 59.5246L1 51.1639L10.1967 41.9672L4.34426 31.0984L16.0492 27.7541V15.2131H27.7541Z" fill="#F8D046" stroke="#F8D046"/>
<path d="M36.324 21.242V27.416C36.324 28.284 36.534 28.928 36.954 29.348C37.3833 29.768 37.976 29.978 38.732 29.978C39.4787 29.978 40.062 29.768 40.482 29.348C40.9113 28.928 41.126 28.284 41.126 27.416V21.242H42.4V27.402C42.4 28.214 42.2367 28.9 41.91 29.46C41.5833 30.0107 41.14 30.4213 40.58 30.692C40.0293 30.9627 39.4087 31.098 38.718 31.098C38.0273 31.098 37.402 30.9627 36.842 30.692C36.2913 30.4213 35.8527 30.0107 35.526 29.46C35.2087 28.9 35.05 28.214 35.05 27.402V21.242H36.324ZM45.7993 24.742C46.0513 24.3033 46.4246 23.9393 46.9193 23.65C47.4233 23.3513 48.0066 23.202 48.6693 23.202C49.3506 23.202 49.9666 23.3653 50.5173 23.692C51.0773 24.0187 51.5159 24.4807 51.8333 25.078C52.1506 25.666 52.3093 26.352 52.3093 27.136C52.3093 27.9107 52.1506 28.6013 51.8333 29.208C51.5159 29.8147 51.0773 30.286 50.5173 30.622C49.9666 30.958 49.3506 31.126 48.6693 31.126C48.0159 31.126 47.4373 30.9813 46.9333 30.692C46.4386 30.3933 46.0606 30.0247 45.7993 29.586V34.64H44.5253V23.328H45.7993V24.742ZM51.0073 27.136C51.0073 26.5573 50.8906 26.0533 50.6573 25.624C50.4239 25.1947 50.1066 24.868 49.7053 24.644C49.3133 24.42 48.8793 24.308 48.4033 24.308C47.9366 24.308 47.5026 24.4247 47.1013 24.658C46.7093 24.882 46.3919 25.2133 46.1493 25.652C45.9159 26.0813 45.7993 26.5807 45.7993 27.15C45.7993 27.7287 45.9159 28.2373 46.1493 28.676C46.3919 29.1053 46.7093 29.4367 47.1013 29.67C47.5026 29.894 47.9366 30.006 48.4033 30.006C48.8793 30.006 49.3133 29.894 49.7053 29.67C50.1066 29.4367 50.4239 29.1053 50.6573 28.676C50.8906 28.2373 51.0073 27.724 51.0073 27.136ZM59.2726 24.378V28.9C59.2726 29.2733 59.352 29.5393 59.5106 29.698C59.6693 29.8473 59.9446 29.922 60.3366 29.922H61.2746V31H60.1266C59.4173 31 58.8853 30.8367 58.5306 30.51C58.176 30.1833 57.9986 29.6467 57.9986 28.9V24.378H57.0046V23.328H57.9986V21.396H59.2726V23.328H61.2746V24.378H59.2726ZM66.1642 31.126C65.4456 31.126 64.7922 30.9627 64.2042 30.636C63.6256 30.3093 63.1682 29.8473 62.8322 29.25C62.5056 28.6433 62.3422 27.9433 62.3422 27.15C62.3422 26.366 62.5102 25.6753 62.8462 25.078C63.1916 24.4713 63.6582 24.0093 64.2462 23.692C64.8342 23.3653 65.4922 23.202 66.2202 23.202C66.9482 23.202 67.6062 23.3653 68.1942 23.692C68.7822 24.0093 69.2442 24.4667 69.5802 25.064C69.9256 25.6613 70.0982 26.3567 70.0982 27.15C70.0982 27.9433 69.9209 28.6433 69.5662 29.25C69.2209 29.8473 68.7496 30.3093 68.1522 30.636C67.5549 30.9627 66.8922 31.126 66.1642 31.126ZM66.1642 30.006C66.6216 30.006 67.0509 29.8987 67.4522 29.684C67.8536 29.4693 68.1756 29.1473 68.4182 28.718C68.6702 28.2887 68.7962 27.766 68.7962 27.15C68.7962 26.534 68.6749 26.0113 68.4322 25.582C68.1896 25.1527 67.8722 24.8353 67.4802 24.63C67.0882 24.4153 66.6636 24.308 66.2062 24.308C65.7396 24.308 65.3102 24.4153 64.9182 24.63C64.5356 24.8353 64.2276 25.1527 63.9942 25.582C63.7609 26.0113 63.6442 26.534 63.6442 27.15C63.6442 27.7753 63.7562 28.3027 63.9802 28.732C64.2136 29.1613 64.5216 29.4833 64.9042 29.698C65.2869 29.9033 65.7069 30.006 66.1642 30.006Z" fill="white"/>
<path d="M48.502 86.098C47.5967 86.098 46.7707 85.888 46.024 85.468C45.2773 85.0387 44.6847 84.446 44.246 83.69C43.8167 82.9247 43.602 82.066 43.602 81.114C43.602 80.162 43.8167 79.308 44.246 78.552C44.6847 77.7867 45.2773 77.194 46.024 76.774C46.7707 76.3447 47.5967 76.13 48.502 76.13C49.4167 76.13 50.2473 76.3447 50.994 76.774C51.7407 77.194 52.3287 77.782 52.758 78.538C53.1873 79.294 53.402 80.1527 53.402 81.114C53.402 82.0753 53.1873 82.934 52.758 83.69C52.3287 84.446 51.7407 85.0387 50.994 85.468C50.2473 85.888 49.4167 86.098 48.502 86.098ZM48.502 84.992C49.1833 84.992 49.7947 84.8333 50.336 84.516C50.8867 84.1987 51.316 83.746 51.624 83.158C51.9413 82.57 52.1 81.8887 52.1 81.114C52.1 80.33 51.9413 79.6487 51.624 79.07C51.316 78.482 50.8913 78.0293 50.35 77.712C49.8087 77.3947 49.1927 77.236 48.502 77.236C47.8113 77.236 47.1953 77.3947 46.654 77.712C46.1127 78.0293 45.6833 78.482 45.366 79.07C45.058 79.6487 44.904 80.33 44.904 81.114C44.904 81.8887 45.058 82.57 45.366 83.158C45.6833 83.746 46.1127 84.1987 46.654 84.516C47.2047 84.8333 47.8207 84.992 48.502 84.992ZM58.2059 79.378H56.5959V86H55.3219V79.378H54.3279V78.328H55.3219V77.782C55.3219 76.9233 55.5412 76.298 55.9799 75.906C56.4279 75.5047 57.1419 75.304 58.1219 75.304V76.368C57.5619 76.368 57.1652 76.48 56.9319 76.704C56.7079 76.9187 56.5959 77.278 56.5959 77.782V78.328H58.2059V79.378ZM62.8133 79.378H61.2033V86H59.9293V79.378H58.9353V78.328H59.9293V77.782C59.9293 76.9233 60.1486 76.298 60.5873 75.906C61.0353 75.5047 61.7493 75.304 62.7293 75.304V76.368C62.1693 76.368 61.7726 76.48 61.5393 76.704C61.3153 76.9187 61.2033 77.278 61.2033 77.782V78.328H62.8133V79.378Z" fill="white"/>
<path d="M30.975 60.575C31.5417 60.125 31.8 59.9167 31.75 59.95C33.3833 58.6 34.6667 57.4917 35.6 56.625C36.55 55.7583 37.35 54.85 38 53.9C38.65 52.95 38.975 52.025 38.975 51.125C38.975 50.4417 38.8167 49.9083 38.5 49.525C38.1833 49.1417 37.7083 48.95 37.075 48.95C36.4417 48.95 35.9417 49.1917 35.575 49.675C35.225 50.1417 35.05 50.8083 35.05 51.675H30.925C30.9583 50.2583 31.2583 49.075 31.825 48.125C32.4083 47.175 33.1667 46.475 34.1 46.025C35.05 45.575 36.1 45.35 37.25 45.35C39.2333 45.35 40.725 45.8583 41.725 46.875C42.7417 47.8917 43.25 49.2167 43.25 50.85C43.25 52.6333 42.6417 54.2917 41.425 55.825C40.2083 57.3417 38.6583 58.825 36.775 60.275H43.525V63.75H30.975V60.575ZM58.2572 49.475H50.4572V52.925C50.7906 52.5583 51.2572 52.2583 51.8572 52.025C52.4572 51.7917 53.1072 51.675 53.8072 51.675C55.0572 51.675 56.0906 51.9583 56.9072 52.525C57.7406 53.0917 58.3489 53.825 58.7322 54.725C59.1156 55.625 59.3072 56.6 59.3072 57.65C59.3072 59.6 58.7572 61.15 57.6572 62.3C56.5572 63.4333 55.0072 64 53.0072 64C51.6739 64 50.5156 63.775 49.5322 63.325C48.5489 62.8583 47.7906 62.2167 47.2572 61.4C46.7239 60.5833 46.4322 59.6417 46.3822 58.575H50.5572C50.6572 59.0917 50.8989 59.525 51.2822 59.875C51.6656 60.2083 52.1906 60.375 52.8572 60.375C53.6406 60.375 54.2239 60.125 54.6072 59.625C54.9906 59.125 55.1822 58.4583 55.1822 57.625C55.1822 56.8083 54.9822 56.1833 54.5822 55.75C54.1822 55.3167 53.5989 55.1 52.8322 55.1C52.2656 55.1 51.7989 55.2417 51.4322 55.525C51.0656 55.7917 50.8239 56.15 50.7072 56.6H46.5822V45.725H58.2572V49.475ZM61.317 50.35C61.317 49 61.7003 47.9583 62.467 47.225C63.2503 46.4917 64.2587 46.125 65.492 46.125C66.7253 46.125 67.7253 46.4917 68.492 47.225C69.2587 47.9583 69.642 49 69.642 50.35C69.642 51.7 69.2587 52.7417 68.492 53.475C67.7253 54.2083 66.7253 54.575 65.492 54.575C64.2587 54.575 63.2503 54.2083 62.467 53.475C61.7003 52.7417 61.317 51.7 61.317 50.35ZM78.292 46.4L68.667 64H64.542L74.167 46.4H78.292ZM65.467 48.625C64.667 48.625 64.267 49.2 64.267 50.35C64.267 51.4833 64.667 52.05 65.467 52.05C65.8503 52.05 66.1503 51.9083 66.367 51.625C66.5837 51.3417 66.692 50.9167 66.692 50.35C66.692 49.2 66.2837 48.625 65.467 48.625ZM73.217 60.05C73.217 58.7 73.6003 57.6583 74.367 56.925C75.1337 56.1917 76.1337 55.825 77.367 55.825C78.6003 55.825 79.6003 56.1917 80.367 56.925C81.1337 57.6583 81.517 58.7 81.517 60.05C81.517 61.4 81.1337 62.4417 80.367 63.175C79.6003 63.9083 78.6003 64.275 77.367 64.275C76.1337 64.275 75.1337 63.9083 74.367 63.175C73.6003 62.4417 73.217 61.4 73.217 60.05ZM77.342 58.325C76.9587 58.325 76.6587 58.4667 76.442 58.75C76.242 59.0333 76.142 59.4667 76.142 60.05C76.142 61.1833 76.542 61.75 77.342 61.75C77.7253 61.75 78.0253 61.6083 78.242 61.325C78.4587 61.0417 78.567 60.6167 78.567 60.05C78.567 59.4833 78.4587 59.0583 78.242 58.775C78.0253 58.475 77.7253 58.325 77.342 58.325Z" fill="white"/>
</svg>
