<svg width="248" height="319" viewBox="0 0 248 319" fill="none" xmlns="http://www.w3.org/2000/svg">
<path d="M-6.65382 207.381L161.29 93.3409L154.548 110.273L173.09 103.646L160.111 115.868L182.617 112.513L163.373 125.58L16.8219 225.946L22.8304 212.92L8.18644 217.752L15.7608 204.515L-6.65382 207.381Z" fill="#F8D046"/>
<path d="M163.373 125.58C106.141 164.776 16.8219 225.946 16.8219 225.946M163.373 125.58L182.617 112.513L160.111 115.868L173.09 103.646L154.548 110.273L161.29 93.3409L-6.65382 207.381L15.7608 204.515L8.18644 217.752L22.8304 212.92L16.8219 225.946M163.373 125.58L16.8219 225.946" stroke="#F8D046"/>
<path d="M51.3858 175.617C52.558 174.841 53.7362 174.394 54.9205 174.279C56.1047 174.163 57.2143 174.37 58.249 174.9C59.2874 175.412 60.1703 176.218 60.8977 177.316C61.6181 178.404 62.0152 179.531 62.089 180.698C62.1734 181.857 61.9259 182.963 61.3466 184.015C60.7778 185.06 59.9126 185.968 58.751 186.737L54.5849 189.496L47.2197 178.376L51.3858 175.617ZM57.024 184.508C58.0483 183.83 58.6603 183.022 58.8598 182.084C59.0594 181.147 58.8199 180.166 58.1414 179.142C57.463 178.117 56.6498 177.509 55.7018 177.316C54.7538 177.124 53.7677 177.367 52.7433 178.045L51.4602 178.895L55.7409 185.358L57.024 184.508ZM60.9934 171.213C60.5182 171.528 60.0366 171.65 59.5484 171.578C59.0639 171.489 58.6852 171.238 58.4125 170.826C58.1327 170.404 58.0497 169.957 58.1635 169.487C58.2809 168.999 58.5772 168.598 59.0525 168.283C59.5171 167.975 59.9917 167.866 60.4763 167.955C60.9644 168.027 61.3483 168.274 61.6281 168.696C61.9009 169.108 61.9786 169.558 61.8612 170.046C61.7473 170.517 61.4581 170.906 60.9934 171.213ZM62.9484 171.24L68.8028 180.079L66.0941 181.873L60.2397 173.034L62.9484 171.24ZM74.4455 176.524C73.6746 177.035 72.9008 177.358 72.124 177.492C71.3472 177.627 70.6341 177.583 69.9849 177.359C69.3286 177.126 68.7905 176.737 68.3706 176.195L71.0476 174.422C71.2822 174.707 71.5891 174.861 71.9684 174.883C72.3478 174.905 72.7223 174.794 73.0919 174.549C73.4298 174.326 73.6466 174.091 73.7422 173.845C73.8413 173.582 73.821 173.345 73.6811 173.134C73.5132 172.88 73.2588 172.783 72.9179 172.841C72.5699 172.89 72.0513 173.036 71.362 173.279C70.6304 173.551 70.001 173.748 69.4737 173.869C68.9393 173.98 68.4036 173.963 67.8666 173.817C67.3225 173.661 66.8511 173.282 66.4524 172.68C66.1167 172.173 65.9497 171.623 65.9515 171.029C65.9569 170.418 66.1484 169.812 66.5261 169.213C66.9144 168.606 67.4834 168.054 68.2332 167.558C69.342 166.823 70.3951 166.521 71.3924 166.65C72.4003 166.773 73.2526 167.257 73.9491 168.102L71.4463 169.76C71.2013 169.481 70.9031 169.329 70.5519 169.304C70.2112 169.271 69.856 169.377 69.4864 169.622C69.1696 169.832 68.9687 170.056 68.8837 170.295C68.7916 170.523 68.8156 170.742 68.9555 170.954C69.1233 171.207 69.3812 171.31 69.7292 171.262C70.0877 171.206 70.594 171.053 71.2482 170.802C72.0149 170.538 72.6601 170.353 73.1839 170.25C73.7006 170.135 74.2345 170.161 74.7856 170.328C75.3402 170.477 75.8257 170.855 76.2419 171.46C76.5846 171.978 76.7445 172.54 76.7216 173.148C76.7023 173.738 76.495 174.331 76.0997 174.927C75.715 175.516 75.1636 176.049 74.4455 176.524ZM76.133 168.866C75.5245 167.947 75.1777 167.022 75.0926 166.091C75.0182 165.153 75.1912 164.279 75.6117 163.468C76.0427 162.651 76.6912 161.956 77.5572 161.382C78.666 160.648 79.7824 160.326 80.9063 160.417C82.0408 160.501 83.074 160.995 84.0057 161.897L81.1228 163.806C80.4322 163.291 79.7385 163.265 79.0415 163.726C78.5451 164.055 78.2785 164.513 78.2416 165.099C78.1977 165.675 78.4136 166.322 78.8892 167.04C79.3649 167.759 79.8799 168.215 80.4344 168.41C80.9819 168.594 81.5038 168.522 82.0001 168.193C82.6971 167.732 82.9432 167.083 82.7385 166.246L85.6215 164.336C86.0746 165.525 86.1221 166.663 85.764 167.751C85.4059 168.839 84.6777 169.747 83.5795 170.475C82.7135 171.048 81.8202 171.374 80.8995 171.452C79.9894 171.523 79.117 171.341 78.2821 170.907C77.4579 170.465 76.7415 169.785 76.133 168.866ZM93.2971 164.038C92.4312 164.612 91.5273 164.945 90.5855 165.037C89.6543 165.122 88.7607 164.954 87.9048 164.533C87.0594 164.106 86.3325 163.432 85.7239 162.514C85.1224 161.605 84.795 160.675 84.7416 159.723C84.6813 158.76 84.8772 157.863 85.3294 157.032C85.7815 156.201 86.4406 155.498 87.3066 154.925C88.1725 154.351 89.0764 154.018 90.0182 153.926C90.96 153.834 91.8623 154.004 92.7253 154.435C93.5812 154.856 94.3099 155.52 94.9114 156.428C95.513 157.337 95.8386 158.276 95.8884 159.245C95.9418 160.198 95.7371 161.093 95.2743 161.931C94.8222 162.762 94.1631 163.465 93.2971 164.038ZM91.7444 161.694C92.2618 161.351 92.5742 160.871 92.6814 160.253C92.7992 159.628 92.6238 158.962 92.1552 158.254C91.6866 157.546 91.1468 157.121 90.536 156.979C89.9357 156.83 89.3768 156.926 88.8593 157.269C88.3313 157.619 88.019 158.099 87.9223 158.71C87.8186 159.311 88.0046 159.97 88.4802 160.688C88.9488 161.396 89.478 161.828 90.0677 161.984C90.668 162.133 91.2269 162.037 91.7444 161.694ZM102.149 145.276L108.004 154.115L105.295 155.909L104.498 154.705C104.482 155.278 104.317 155.843 104.003 156.401C103.692 156.941 103.251 157.4 102.681 157.777C102.005 158.225 101.311 158.472 100.597 158.519C99.8769 158.556 99.1854 158.383 98.5225 158.002C97.8597 157.621 97.273 157.044 96.7624 156.274L93.3421 151.11L96.035 149.326L99.214 154.126C99.6057 154.717 100.063 155.075 100.586 155.199C101.109 155.324 101.629 155.215 102.147 154.872C102.675 154.522 102.984 154.082 103.073 153.552C103.163 153.022 103.011 152.461 102.62 151.87L99.4407 147.07L102.149 145.276ZM109.418 140.325C110.453 139.64 111.5 139.432 112.561 139.702C113.624 139.955 114.544 140.667 115.321 141.84L118.741 147.004L116.048 148.787L112.869 143.987C112.477 143.396 112.02 143.038 111.497 142.914C110.974 142.789 110.454 142.898 109.936 143.241C109.419 143.584 109.115 144.02 109.026 144.55C108.936 145.081 109.088 145.641 109.479 146.233L112.658 151.032L109.949 152.826L104.095 143.987L106.804 142.193L107.58 143.366C107.596 142.793 107.763 142.242 108.081 141.712C108.391 141.172 108.837 140.71 109.418 140.325ZM124.028 140.197L125.55 142.494L124.172 143.407C123.189 144.057 122.266 144.327 121.403 144.215C120.532 144.093 119.736 143.488 119.016 142.4L116.686 138.884L115.609 139.597L114.119 137.348L115.197 136.635L113.77 134.48L116.478 132.686L117.905 134.84L119.679 133.665L121.169 135.915L119.395 137.09L121.745 140.638C121.92 140.902 122.109 141.05 122.313 141.082C122.517 141.115 122.766 141.033 123.062 140.837L124.028 140.197ZM122.995 127.618L127.704 135.415L125.407 136.937L120.065 129.559L122.995 127.618ZM129.281 140.205C128.806 140.52 128.324 140.641 127.836 140.569C127.351 140.48 126.973 140.23 126.7 139.818C126.42 139.395 126.334 138.944 126.441 138.463C126.558 137.975 126.854 137.573 127.329 137.259C127.794 136.951 128.269 136.842 128.753 136.931C129.248 137.013 129.636 137.265 129.916 137.688C130.188 138.1 130.266 138.55 130.149 139.038C130.035 139.508 129.746 139.897 129.281 140.205Z" fill="white"/>
</svg>
