<svg width="173" height="173" viewBox="0 0 173 173" fill="none" xmlns="http://www.w3.org/2000/svg">
<g clip-path="url(#clip0_24_93)">
<path d="M34.2506 77.5273C34.2506 77.5273 35.3951 81.2775 35.9653 81.6564C36.5355 82.0352 40.6324 83.8564 41.0527 83.6556C41.473 83.4548 44.3605 82.4663 44.3605 82.4663L44.426 78.007L40.6003 75.4068L35.949 75.6753L34.2506 77.5273ZM36.1839 60.5077L37.9344 64.699L42.0255 66.666L44.7979 65.3413L45.2409 62.578L42.4923 58.4089L36.8992 57.3502L36.1839 60.5077ZM48.9535 48.1891L49.4663 51.7268L50.9872 54.6439L53.8244 56.5924L56.7085 55.8379L57.1301 52.3442L55.1249 48.1474C55.1249 48.1474 50.8934 46.456 50.3551 46.7133C49.8168 46.9705 48.9543 48.1868 48.9543 48.1868M65.6294 47.8821L65.2484 52.242C65.2484 52.242 68.0798 57.1122 68.677 57.3233C69.2743 57.5343 73.3902 56.9974 73.3902 56.9974L74.6585 52.5452L72.0345 47.1866L68.3274 45.6617L65.6294 47.8821ZM53.1112 72.6955C53.1701 73.1638 52.6307 79.2951 52.6307 79.2951L55.9367 84.8302L56.6246 91.1198L60.2773 95.9928L66.549 96.2606L70.1799 92.5559L72.7774 86.3308L79.8713 84.9825C80.566 84.8391 81.2118 84.5187 81.7463 84.0525C82.2809 83.5863 82.6861 82.99 82.9226 82.3213C83.6276 80.3225 84.0076 77.631 83.8054 77.4198C83.4781 77.0798 81.0112 72.7979 81.0112 72.7979C81.0112 72.7979 74.9482 69.426 73.8648 70.2753C73.8648 70.2753 68.7297 63.9124 62.9016 64.8763C57.0751 65.8393 55.642 68.1761 55.642 68.1761L53.1112 72.6955ZM89.5678 94.3922C89.5678 94.3922 88.5596 100.033 89.0211 100.309C89.4825 100.585 93.0563 104.411 93.0563 104.411C93.0563 104.411 97.1825 103.347 97.1235 102.879C97.0646 102.411 96.8523 98.5128 96.8523 98.5128L93.5823 94.1083L89.5678 94.3922ZM98.8948 79.0245L98.3181 85.0902L104.083 89.5835L107.601 85.1227L106.406 80.6737L103.167 77.6561L98.8948 79.0245ZM116.198 75.6753C116.257 76.1436 114.904 82.6282 114.904 82.6282L118.832 87.0381L121.552 84.5945L122.321 79.9578L120.253 75.9339L116.198 75.6753ZM130.358 84.7355L129.285 89.9605L130.193 93.9388L132.437 94.9992L135.743 92.4763C135.743 92.4763 136.868 87.9791 136.675 87.5749C136.482 87.1708 134.774 84.1149 134.774 84.1149L130.358 84.7355ZM104.135 105.843C104.578 107.592 104.841 111.574 104.841 111.574C104.841 111.574 101.852 116.465 101.84 117.134C101.829 117.801 102.475 122.22 102.475 122.22L105.9 125.772L110.587 126.527L117.351 120.768L125.173 123.217C125.173 123.217 130.726 123.112 131.787 119.791C132.849 116.47 131.762 112.218 131.762 112.218L127.299 108.03L124.601 101.134C124.601 101.134 118.176 94.8414 113.476 96.094C108.78 97.3449 103.574 103.629 104.135 105.843Z" fill="#3F3F3F"/>
<path d="M74.6368 69.6761C74.4076 69.3439 74.1648 69.0214 73.9088 68.7094C69.17 62.9971 61.0098 61.9518 55.6767 66.3745C50.3435 70.7971 49.8646 79.0124 54.6026 84.723C54.8639 85.037 55.1383 85.3328 55.4193 85.6175C54.466 88.4141 54.9765 91.7226 57.1055 94.2875C60.2637 98.0962 65.7054 98.7923 69.2595 95.8452C71.6543 93.859 72.542 87.3011 72.8356 87.0595C73.1284 86.8163 79.737 87.1535 82.1303 85.1681C85.6852 82.2186 86.0061 76.7436 82.8463 72.9357C80.7189 70.37 77.5614 69.2556 74.6368 69.6761Z" stroke="black" stroke-width="2" stroke-linecap="round" stroke-linejoin="round"/>
<path d="M45.6336 66.4642C47.4584 64.5291 46.7409 60.8889 44.0311 58.3337C41.3214 55.7785 37.6454 55.2759 35.8206 57.211C33.9959 59.1462 34.7133 62.7863 37.4231 65.3415C40.1329 67.8967 43.8089 68.3994 45.6336 66.4642Z" stroke="black" stroke-width="2" stroke-linecap="round" stroke-linejoin="round"/>
<path d="M45.2912 82.9531C46.6379 80.6594 45.1266 77.2717 41.9156 75.3864C38.7046 73.5012 35.0099 73.8323 33.6632 76.126C32.3165 78.4197 33.8278 81.8074 37.0388 83.6926C40.2498 85.5779 43.9445 85.2468 45.2912 82.9531Z" stroke="black" stroke-width="2" stroke-linecap="round" stroke-linejoin="round"/>
<path d="M74.3503 49.9285C73.0008 46.4581 69.8972 44.4263 67.4183 45.3902C64.9393 46.3542 64.0236 49.9489 65.3731 53.4193C66.7226 56.8897 69.8261 58.9216 72.3051 57.9576C74.7841 56.9936 75.6997 53.3989 74.3503 49.9285Z" stroke="black" stroke-width="2" stroke-linecap="round" stroke-linejoin="round"/>
<path d="M98.3073 85.155C97.2211 81.5934 98.3964 78.0771 100.941 77.2981C103.486 76.519 106.431 78.7756 107.518 82.3364C108.606 85.8972 107.42 89.3829 104.887 90.1942C102.338 91.0092 99.3965 88.727 98.3097 85.1558M49.1267 45.5846C51.1887 44.1982 55.4674 46.3833 56.8865 48.4932C58.9645 51.5829 59.0527 55.6948 56.8455 57.1803C54.6383 58.6658 51.1644 57.363 49.0857 54.2716C47.007 51.1803 46.9211 47.0693 49.1267 45.5846ZM128.045 107.431C128.007 107.032 127.961 106.631 127.89 106.23C126.6 98.9216 120.025 93.9738 113.203 95.1779C106.382 96.382 101.898 103.28 103.189 110.59C103.26 110.993 103.354 111.385 103.455 111.771C101.241 113.729 100.05 116.858 100.629 120.139C101.489 125.01 105.873 128.311 110.42 127.508C113.483 126.966 117.499 121.709 117.876 121.642C118.253 121.575 123.825 125.142 126.888 124.6C131.435 123.797 134.424 119.198 133.565 114.325C132.986 111.043 130.794 108.512 128.045 107.431Z" stroke="black" stroke-width="2" stroke-linecap="round" stroke-linejoin="round"/>
<path d="M96.1693 104.85C98.4748 103.523 98.8379 99.8309 96.9805 96.6026C95.123 93.3743 91.7483 91.8325 89.4429 93.159C87.1375 94.4855 86.7743 98.1778 88.6318 101.406C90.4892 104.634 93.8639 106.176 96.1693 104.85Z" stroke="black" stroke-width="2" stroke-linecap="round" stroke-linejoin="round"/>
<path d="M137.576 90.1261C138.121 86.4417 136.43 83.1393 133.799 82.7499C131.168 82.3605 128.593 85.0316 128.047 88.716C127.502 92.4004 129.193 95.7028 131.824 96.0922C134.455 96.4816 137.03 93.8105 137.576 90.1261Z" stroke="black" stroke-width="2" stroke-linecap="round" stroke-linejoin="round"/>
<path d="M123.525 80.6011C123.249 76.8879 120.875 74.0376 118.222 74.235C115.57 74.4323 113.643 77.6025 113.92 81.3157C114.196 85.029 116.57 87.8792 119.223 87.6819C121.875 87.4846 123.801 84.3144 123.525 80.6011Z" stroke="black" stroke-width="2" stroke-linecap="round" stroke-linejoin="round"/>
</g>
<defs>
<clipPath id="clip0_24_93">
<rect width="129" height="129" fill="white" transform="translate(0 55.6145) rotate(-25.5387)"/>
</clipPath>
</defs>
</svg>
