<svg width="183" height="137" viewBox="0 0 183 137" fill="none" xmlns="http://www.w3.org/2000/svg">
<path d="M-6.8221 116.277L161.29 1.3409L154.527 18.3852L173.081 11.696L160.084 24.008L182.599 20.6067L163.337 33.7764L16.6373 134.929L22.6621 121.816L8.00939 126.694L15.6007 113.367L-6.8221 116.277Z" fill="#F8D046"/>
<path d="M163.337 33.7764C106.047 73.2789 16.6373 134.929 16.6373 134.929M163.337 33.7764L182.599 20.6067L160.084 24.008L173.081 11.696L154.527 18.3852L161.29 1.3409L-6.8221 116.277L15.6007 113.367L8.00939 126.694L22.6621 121.816L16.6373 134.929M163.337 33.7764L16.6373 134.929" stroke="#F8D046"/>
</svg>
